<svg id="Lag_1" data-name="Lag 1" xmlns="http://www.w3.org/2000/svg" viewBox="0 0 738 321.99"><title>Lauge Petersen Logo</title><path class="first-L"  d="M69.38,46.29c.06,3.2.44,9.11-.42,9.89s-11.33-4-11.76-3.57c-6.28,5.85.72,64,.94,95.94,0,.82-.9.9-.9,1.17a17.89,17.89,0,0,1,1,4.59c.07,4.38-.17,8.16-.11,12.28,0,2.74.39,5.54.44,8.28l0,1.37c.07,4.39-.79,8.64-.72,13,.12,7.69,1.18,16,1.33,25.07a110.89,110.89,0,0,1-.71,14.2,22.11,22.11,0,0,0,6.24.87l3.74.19,1.25.06c2.49.13,5,.52,7.18.62,1.25.06,2.49-.14,3.43-.1.91-1.27.87-3.1.84-4.68,0-2.1-.39-4-.43-6.05l-.32-15.75c-.16-7.88,0-15.45.48-21.91a91.82,91.82,0,0,1,12.39,1c5.84.82,8.76,1.22,14.61,2l5,.65a113.76,113.76,0,0,1,1.33,15.12l.38,14.75c.2,7.62.09,15.22-.36,22.35,0,.49,1,.52,1,1.26,0,0-.92.71-.91,1.2,0,1.48.39,2.72.1,3.69-.86,2.94-6.06,7.83-10.1,9.08-2.49.74-5.94.74-9.38.73-4.08,0-8.15-.28-12.54-.29-10.34,0-21,.21-31.64.18-16.91,0-33.84-.35-48.55-2a42.41,42.41,0,0,1-.94-9.3c0-3.72.31-8,.31-11.75,0-1.49,0-2.23,0-3.71a6.75,6.75,0,0,1,5-1.54l2.17.14c1.55.1,4.18,0,4.66-.91,4.76-9,.31-37.54.39-55.72,0-2.69.28-5.36.27-7.77a24.44,24.44,0,0,0-1.87-9.75,44.29,44.29,0,0,0-6.4-10.35C3.61,138.25,0,135.63,0,131.9c0-4,4.22-7.48,6.32-9.31,3.9-3.75,8.7-6.79,8.67-13.39,0-6-.66-12.22-.68-18.24l0-6c-.05-11.43.19-22.73.14-34.16l-.09-18.94c-2.36-3-8.21-4.18-10.84-7.1,0-1.6,0-2.4,0-4,0-3.7,0-5.55,0-9.24V4.42c0-1.85,0-3.7.86-4.42.87.2,2,1.49,2.9,1.69.29.17.87-.41.87-.41l.29.17C9,1.79,9,2.7,9,2.7c1.16.67,1.16-.24,1.45-.07l.29.17c1.17.67,2.62,2.41,5,3.73L18,7.84c6.72,3.75,14.67,7.45,22.38,11.42,3.86,2,7.43,4.06,11,6.1,0,0,1.81,2,2.4,1.72s2.08.19,3.88,1.06c3.6,1.72,8.13,4.64,10.84,5.88C68.92,38.15,69.3,42.28,69.38,46.29Z"/><path d="M287.64,235.87c1.26,0,2.83-.16,4.09-.14,1.57,0-.94.19,0,.59a34.47,34.47,0,0,1,1.08,7.92c.06,3.36,3.15,8.14,2,8.9-2.3,1.57-12.84.58-19.74.57l-16.93,0c-8.15,0-15.35.19-21.94.18-3.45,0-6.58,0-9.41-.22a73.35,73.35,0,0,1-2-16.91l0-1.06a19.89,19.89,0,0,1,7.82-1.07l2.52.06a3.1,3.1,0,0,0,.27-1.66c-.08-2.92-2.31-6.42-3.09-9.7-.94-3.94-.53-8-2.51-11.42l-5.67-.3c-7.88-.42-15.42-.44-23-.68-2.74,2.88-2.92,6.83-3.76,10.92a79.06,79.06,0,0,0-1.85,11.76,9.29,9.29,0,0,0,3.79.77l5.34.15a9.49,9.49,0,0,1,3.79.75c0,.86.36,1.73.39,2.81.06,1.94-.19,4.31-.12,6.68l.11,3.67c.06,1.94-.2,4.73-.79,5.18-1.55,1.19-7.5.64-11.26.64-3.45,0-7.22-.23-11.29-.23h-3.13c.31,0-.3.67-.61.67h-.31a1.61,1.61,0,0,0-1.59-.68c-.63,0-.92.68-1.54.68-.32,0,0-.68-1-.68-5,0-10,.67-15.34.67a60.69,60.69,0,0,1-12.88-1.19,47,47,0,0,1-1.22-10,43.59,43.59,0,0,1,.66-9.69,12.72,12.72,0,0,1,4.37-.31,36.38,36.38,0,0,1,6,.68c2.74-2.7,2.64-6.16,3.17-9.37a120.74,120.74,0,0,1,3.64-14.74c.58-1.56-.38-2.1.5-4.09.29-.89.83-3.6,1.39-5.83,1.12-4.47,2.24-9.14,3.36-13.56.28-1.1.56-2.43.83-3.54l.88-1.94a3.45,3.45,0,0,0-.07-2.5,3.58,3.58,0,0,0-.37-1.85,13.8,13.8,0,0,1-.68-1.67,23.9,23.9,0,0,1-1-2.62,5.51,5.51,0,0,1-.41-3.23c.25-.85-.05-1.82.24-2.46.88-1.92,3-3.19,4.24-4.82.3-.41.92-.77,1.22-1.17s.29-.86.59-1.26c.31-.18,0-.68.29-.85a8.82,8.82,0,0,0,1.45-3.81c.29-1.5.85-3,1.12-4.52,1.13-4.29,1.95-8.38,2.76-12.68s1.7-8.62,2.76-12.78c.58-2.28,1.42-5.25,2.26-8.59.27-1.49,0-2.24.83-3.79.61-1.14,1.42-5.19,2-7.48,0-.44-.35-1.39-.05-1.76.6-1,1.73-5.3,2.3-7.35.3-.37-.35-1.39-.05-1.76.58-1.61,1.55-7.52,2.24-9.49.2-.57,2.19-.78,3.12-1.42s.57-2,1.51-2.45a19.66,19.66,0,0,1,6.58-2.31c2.16-.17,8.39,1.64,14,2.51,2.49.38,4.16.67,5.76,1a18.9,18.9,0,0,1,3.21.86c3.87,1.4,6.83,4.86,9.46,7.6,1,1,2,2,2.63,2.73.32.26-.3.77,0,1,2.28,1.63,2.47,9.25,3.5,12.28,0,.2.65.51.67,1.13.43,4.37,2.48,9.79,3.88,14.88,0,.2.65.7.66,1.11.38,2.3,1.4,4.88,2.1,7.61,2.45,8.86,5.21,17.9,8,27.07.69,2.29,1,4.39,1.74,6.63a10.58,10.58,0,0,0,1,2.92c.33.23.33.63.66.86.33.43.34.84.67,1.26.66,1.06,1.95,1.76,3.23,2.67a20.71,20.71,0,0,1,2.91,2.22,10.43,10.43,0,0,1,2.28,2.76c.3.81,1.62,1.51,2,2.33l0,1.2,0,1.4a10.82,10.82,0,0,1-.25,3.19l-.89,3c-.3.78-.28,1.59-.91,2.15-.31.38-.93.75-1.24,1.34-.92,1.56.47,3.47,1.06,5.07.72,1.95,1.47,4.54,2,6.51.39,1.34,1,3,1.36,4.46,0,.4-.29,1,0,1.4,3.3,6.93,5.72,17.76,8.71,25.57A10,10,0,0,0,287.64,235.87ZM214.1,190.75c.31,0,.94-.13,1.25-.11s.93-.35.62-.37a13.83,13.83,0,0,1,2.53.63,8.58,8.58,0,0,0,4.08-.73c-1.18-8.54-5.16-15.49-6.35-24.12-.95-.11-1.28-.57-2.23-.68l-.32,0c-1.65,8.54-5.24,15.24-6.55,24.17C209,189.68,211.89,190.57,214.1,190.75Z"/><path d="M328.77,93.74c10,.57,15,.77,25.07,1,12.05.26,23.46.38,33.56.89v1.93l0,5.2v1.93c0-.19,1.63.15,1,.36a2.06,2.06,0,0,0-1,2.14c.34.91,1,2.48,0,3.47.32,1.73-3.57.85-5.85,1.08a14.76,14.76,0,0,0-4.87,1l0,9.23c0,10.58-.36,21.74-1,31.94V157a64.91,64.91,0,0,1,.62,11.73c0,8.66-.67,18.66-.68,26.94,0,6.16.3,11.93.29,17.89,0,2.89-.33,6-.33,9,0,.77-.63,1.73-.63,2.5,0,.38.63,1.15.63,1.92,0,1.54-.47,3,0,4.42a8.22,8.22,0,0,0,2.52,3.46c1.39,1,6,1.14,9.76,1.13,4.72,0,10.62-.81,11.35-2.17,1.17-2.19,1-6.77,1-10.25s-.26-7.15-.23-11c0-1.16.33-2.52.34-3.67,0,0,.64-.2.64-.59s-.64-1-.62-1.92c.22-8.93.78-18.56.85-28l.23-29.76c.09-12,2.21-26.09,1.24-35.6-.2-2-8.1-.47-11-1.54,0-.77.34-1.74.34-2.52,0-2.51-.3-4.81-.29-7.32a21.42,21.42,0,0,1,1-6.59c9.12-.11,18.24-.59,27.66-1.07,8.77-.45,17.54-1.06,25-.67l0,2c0,2.17.25,4.31.22,6.48a7.86,7.86,0,0,1-.37,2.8c-.34.82-.66,1-.67,1.64,0-.2.64.13.64.33a5.36,5.36,0,0,1-.67,1.64c-.22.64-1.31,1.31-2.93,1.46-1.29.12-3.23.1-4.53.21a4.13,4.13,0,0,0-2.59.81l0,1.18c0,3.14.55,6.22.49,9.95,0,1.18-.67,1.62-.68,2.4,0,.39,1,.71.62,1.52,0,.2-.65.83-.65.64,0,.78.36.49,0,1.37a18.3,18.3,0,0,0-.39,4.33,9.51,9.51,0,0,0,.28,3.31c0,.2.63.54.63.54a51.13,51.13,0,0,0-.72,5.14l-.18,12.15-.13,8.62c-.08,5.1,5.9,10.47,8,15.48a6.77,6.77,0,0,1,.58,3.52c-.09,5.52-5.54,9.79-8.5,15.09-1.89,3.38-2.33,7.32-2.38,11.24-.07,4.9.49,10,.42,14.28,0,2.55.24,5.09.2,7.44a26.1,26.1,0,0,1-1.06,7.65,5.07,5.07,0,0,1-1.61,2.17c-.32.4-.64,1.18-1,1.57-.32.2-1.26.2-1.57.4-1,.79-1.61,1.88-2.55,2.56s-2.21,1-3.16,1.58c-.63.39-.33,1.17-1,1.56a6.91,6.91,0,0,1-1.58,1c-1.58,1.37-6.33,4.87-8.84,5.46a10.92,10.92,0,0,1-2.51,0c-.94,0-1.26.58-1.57.58-.63,0-.93-.77-1.56-.58-.31,0-.32.58-.95.58a29,29,0,0,0-3.13-.58c-.94,0-1.57.58-3.14.58-2.2,0-4.39-.58-6.58-.58H382c.31,0-.31.58-.63.58h-.31c-1.56-1.15-3.45,0-5.64,0s-2.82-1.15-5.64-.58c-.31,0-.94.58-.62.58-1.57,0-4.39-.58-6-.58.32,0,0,.58-.31.58h-.31c-1.26-1-2.85,0-5.65-.58-4.37-.93-11-5.79-14.8-8.5-2.21-1.55-4.11-3.29-6.32-5s-5-3.37-5.71-4.87a12.71,12.71,0,0,1-1-4.85c0-3.68.87-7.93.84-11.23-.07-7,.18-14.14.12-21.3,0-2.32-.24-5-.38-7.18-.18-2.77-1-4.47-4.53-6.71-3.21-2-9.93-4.21-10-7.53-.06-4.48,9.82-6.64,13-10,1.9-2.26,2.19-5,2.17-7.67l0-5.42-.15-15.88c-.08-8.33,1.14-18.45-.55-24.8-.59-2.21-10.05-1.14-12.34-3.24.32-.76,0-1.56,0-2.34,0-2.33-.38-5.08-.41-7.42,0-2.53.27-4.64,2.53-5.65C323.11,93.4,325,93.52,328.77,93.74Z"/><path d="M565.18,69.58l.95-.27,3.15-.91c6.62-1.93,13.21-3.76,17.55-3.52l-.22,7.71c-.23,7.95-.15,16-.38,24-.1,3.28-.51,6.63-.6,9.9,0,.47-1,1.17-.68,2,0,.23.61.32.59,1l-.12,4.21c-.06,2.1.19,4.37.13,6.48a18.58,18.58,0,0,1-2.13,8.81A271,271,0,0,1,552,133.53a13.64,13.64,0,0,1-1.07-6.42c.08-2.66.48-5.6.58-8.92,0,0-1.25-.19-.92-.92,0-.22.95-.19,1-.86a28,28,0,0,0,.47-5.16c.13-4.44-.35-9.39-.21-14.26,0-1.55.4-3,.45-4.51-6.91-.12-16.78,2.55-25.37,3.89-1.63,1.4-1,3.4-1.08,4.68l-.12,4.27c0,1.5-.69,2-.1,3.42.3.58-.08,1.95-.09,3.21-.1,9-.19,18.34-.46,27.52-.92,31.12-10.71,79.68-3.59,93.45.44.84,4.36.95,7.51.86,2.83-.08,6-.39,8.8-.48.94,0,2.19.15,3.13.12A7.74,7.74,0,0,0,542,229c0-1.54-.23-2.84-.18-4.6,0-.66,1-1.14,1-1.36,0-.44-.93-.4-.91-1.06,0-1.1,1-1.8,1-2.9,0-.88-.92-.83-.91-1,0-.44,1-.71,1-1.15,0,0-.92-.61-.91-1,0-.22,1-.71,1-1.15.36-1.56-.85-3-.83-3.9,0-.44,1-.72,1-.72,0-.44-.93-.38-.91-1,0-1.1,1-1.6,1-2.92l.13-4.4.35-11.87.12-4.18c-2.78-1.7-6.92.24-11.3-.64-.57-2.1-.76-6.39-.64-10.71a36.7,36.7,0,0,1,1.2-8.76,20.41,20.41,0,0,1,5.07-1.28c3.16-.4,7-.28,10.39-.69,16.46-2,35.21-4.69,47.67-4.87l-.07,2.39-.22,7.64a63.72,63.72,0,0,1-.94,11.06c.87,2.26-3.16,1.36-5.06,2.53-.32.28.27,1.38-.66,1.26l-.45,15.82c-.4,13.93-1.1,27.42-2.09,40.16l-.05,1.89-.18,6.36a22.61,22.61,0,0,1-1.12,6.37,46,46,0,0,1-5.66.71c-.94,0-.3-.7-.61-.7a21.52,21.52,0,0,1-3.47.7c-3.44,0-6.25-.69-10.32-.68-3.68-2.5-5.46-6.1-9.46-8.51-6.6.77-7.37,5.66-12.44,7.44h-4.08c-4.07,0-8.15.24-12.54.24-1.57,0-3.76-.21-5.32-.2-.63,0-.93-.43-2.19-.42.32,0-.65.85-1,.43-1.53-1.27-11-.28-14.39-1-3-.67-5.26-2.69-8-4.32a76.19,76.19,0,0,1-7.1-4.67c-2.45-1.82-6.18-4-9-6.2-.93-.59-3.5-2.41-4-3.58a6.91,6.91,0,0,1-.25-2.83c.05-2.23.44-5.48.5-8.12,0-.41-.93-.58-.6-1,0-.2.63-.22.64-.63.4-3.46.47-6.5.55-9.95l.25-10.75c.07-3.25.32-6.63.54-9.75.1-1.35,1-2.9,1-4.12,0-1.62-2.54-2.89-3.39-4.22a26.2,26.2,0,0,1-2.12-4.5c-.86-2.13-2.12-4.48-2.07-6.7l0-1.21c.68-2.27,3.27-4.08,4.59-6.22,3.62-5.36,2.8-11,3.24-16.48l.12-5.07.11-4.87c0-.41.65-.48.66-1.09,0,0-.63-.54-.62-.94l.06-2.64c.11-4.87.89-10.63,1-15.91,0-1.42-.25-3-.21-4.63a7.93,7.93,0,0,1,.38-2.68c0-.2,1-.74,1-.54,0-.41-.95-.68-.93-1.49,0-.41,1-.95,1-1.76,0-.41-1-.47-.93-1.28,0,.2,1-.55,1-.75a12.58,12.58,0,0,1,2.69-5.06c.33-.25.64-.1.66-.71,0-.41,4.25-3.32,4.27-4.34,0-.82,3.93-3.31,5.24-4.57.33-.26-.3-.77,0-1,1.3-.84,3.27-2.64,4.89-3.56,2-1.39,5.17-2.21,9.34-3.05,5.46-1.1,11.85-2,17.91-3.21,1-.22,1.59-.15,2.55-.37,2.23-.52,4.48-1.26,6.7-1.8l2.55-.62a41.71,41.71,0,0,1,7.93-1.35c5.67.06,7.46,3.32,10.58,4C560,75.27,561.35,71.79,565.18,69.58Zm8.38,150.78c.31.21,1.27-.53.64-.5C573.88,219.88,573.56,220.13,573.55,220.36Z"/><path d="M715.11,76.07c-1.16.49-2.69,1.35-3.89,1.82-3,1.16-5.74,1.56-6.26-2a82.84,82.84,0,0,1-.47-12.73c.1-10,1.1-23.16-.34-24.76-.45-.5-5.34.78-8.93,2.44-2.69,1.24-5.09,2.62-7.79,3.83-.9.4-1.8.52-2.7.92A13.53,13.53,0,0,0,683.43,52c0,2.53.13,5,.18,7.75.08,4.23.16,9.17.09,14-.18,11.83-.68,24.9-.86,37l-.18,11.54c4.24,1.35,7,0,13.38-1.49,1.23-1.79,1.56-4.5,1.59-7.12l0-3.49c0-2,.22-4.92,1-5.81,1.06-1.27,5.15-2.55,8.48-3.66,3.62-1.21,8.52-2.74,9.33-2.26.52.3.88,2.72.87,4.54,0,3-.94,6.66-1,10.29l0,6.35c0,6.36.22,13.23.17,19.59a154.41,154.41,0,0,1-1,17.15,45.8,45.8,0,0,1-9.49,2.87,43,43,0,0,1-9.49,1l.16-13.64c-3-1-7.94.39-14.38,1.81a41.76,41.76,0,0,0-.4,6.26c-.06,4.22.17,8.95.09,14.3-.19,12.67-.66,23.13-.81,33a215.53,215.53,0,0,0,.87,24.41,111.27,111.27,0,0,0,14,0,35.42,35.42,0,0,0,6.23-.67c1.21-.31,1.6-4.82,1.64-9.25,0-3.25-.25-6.17-.24-6.76,0-2.06-.58-4.36-.55-6.72a7.42,7.42,0,0,1,1-3.64c2.51-3.83,7.76-5.11,12.08-5.68,2.16-.28,5.24-1,8-1.37,3.08-.41,5.86-.47,8,.48,2.74,1.21,5,6.52,5.54,9.4A23,23,0,0,1,738,206c0,3.81-.62,8-.62,11.79,0,4.12.31,8.22.31,12a26.43,26.43,0,0,1-.31,5.09c-.94,5.11-5.94,9.66-8.76,13.44-.32,1.87-2.2,2.51-3.45,3.75l-11.59.07c-11.9.07-23.18.42-34.77.47-4.7,0-9.39-.23-14.09-.21-1.26,0-1.56-.54-2.5-.53-.63,0-1.26.55-2.52.55-2.5,0-4.7.29-7.21.3-1.88,0-3.75-.25-5.63-.24,0,0,0,.79-.65.79S644.68,252,642.8,252c.31,0-.64.52-.64.52a16,16,0,0,1-3.77.53c-4.07,0-9.38-1-13.45-1-1.18-3-1.39-7-1.28-11.32l.2-8.06.07-2.77c2.85-1.39,10.23-.43,11.29-1.82,1.25-1.65,1.11-7.26,1.19-10.87.16-6.7-.62-13.3-.47-19.73l.16-6.69c.13-5.4.41-10.68.69-16,.08-1.5.71-4,.76-5.76a6.93,6.93,0,0,0-.56-2.73c-1.19-2.11-4.26-2.65-5.77-4.35-1.74-2-3-4-2.61-6.85.67-4.63,4.54-8.71,7.42-12.9,1.59-2.13,2.24-3.56,2-5.55s.43-4.22.46-6.51c.2-14.71-.2-30.38.22-48.12l.38-15.94c-1.15-2.64-8,1.35-11,.68l.49-19.39a5.6,5.6,0,0,1,2.52-3c23.43-8.58,46.09-19.36,68-30.61,4.13-2.12,9.17-5.2,13.58-7.65,5-2.78,9.37-5,11.41-4.64a13.21,13.21,0,0,1,3.78.91c1.16.26,4.12,1.07,5.22,2,.87.71.87.44,1.45,2.31a50.8,50.8,0,0,1,.57,7.87c.07,2.13.87,3.94.87,5.84,0,0-1.09,1.61-.88,2.36.37,1.29,0,.31,0,3.15,0,1.26,0,1.89,0,3.15,0,8.2.87,16.92.86,26.4,0,.76,0,1.14,0,1.9,0-.32-1.48,1-.89,1a2.71,2.71,0,0,1,1.48,2.5,9.11,9.11,0,0,1-3.85,7C727,71.3,720.72,73.71,715.11,76.07Z"/><path d="M35.71,287.06q4.19,3.28,4.19,9.31,0,6.24-4.19,9.66t-11.86,3.42H12.7v12.27H8.63V283.77H23.85Q31.52,283.77,35.71,287.06Zm-2.92,16.56A8.46,8.46,0,0,0,36,296.48a8.16,8.16,0,0,0-3.19-7q-3.19-2.39-9.15-2.39h-11v18.95h11Q29.57,306.09,32.79,303.62Z"/><path d="M108.21,283.77h27.61v3.37H112.28v13.57h21.06v3.37H112.28v14.28h24.31v3.37H108.21Z"/><path d="M200.89,283.72h31.33v3.42H218.59v34.58h-4.07V287.14H200.89Z"/><path d="M299.53,283.77h27.61v3.37H303.6v13.57h21.06v3.37H303.6v14.28h24.31v3.37H299.53Z"/><path d="M425.25,321.72l-8.91-12.38q-1.89.11-2.89.11H402.13v12.27h-4.07V283.77h15.4q7.73,0,11.95,3.28t4.22,9.31a12.32,12.32,0,0,1-2.48,7.87,13,13,0,0,1-7.08,4.4L430,321.72Zm-11.8-15.63q5.9,0,9.09-2.47a8.49,8.49,0,0,0,3.19-7.14,8.15,8.15,0,0,0-3.19-7q-3.19-2.39-9.09-2.39H402.13v18.95Z"/><path d="M518.23,287.71a22.4,22.4,0,0,0-5.66-.79,13.11,13.11,0,0,0-6.82,1.55,4.72,4.72,0,0,0-2.56,4.21,5.24,5.24,0,0,0,1.42,3.8,10,10,0,0,0,3.48,2.31,57.17,57.17,0,0,0,5.66,1.87,51.35,51.35,0,0,1,6.76,2.25,11.82,11.82,0,0,1,4.36,3.23,9.13,9.13,0,0,1-.06,11,11.85,11.85,0,0,1-5.22,3.61,21.71,21.71,0,0,1-7.73,1.27,23.24,23.24,0,0,1-8.41-1.57,23,23,0,0,1-7.05-4.18l1.89-3.09a20.59,20.59,0,0,0,6.43,3.91,19.93,19.93,0,0,0,7.2,1.41,13.83,13.83,0,0,0,7.49-1.77,5.39,5.39,0,0,0,2.77-4.75,5.51,5.51,0,0,0-1.42-3.91,9.4,9.4,0,0,0-3.48-2.33q-2.07-.81-5.78-1.9a62.81,62.81,0,0,1-6.72-2.25,11.21,11.21,0,0,1-4.31-3.15,8.15,8.15,0,0,1-1.77-5.46,7.75,7.75,0,0,1,1.77-5,11.17,11.17,0,0,1,5-3.34,21.39,21.39,0,0,1,7.37-1.17,25.67,25.67,0,0,1,6.76.92,24.65,24.65,0,0,1,6,2.44l-1.77,3.2A22.31,22.31,0,0,0,518.23,287.71Z"/><path d="M596.93,283.77h27.61v3.37H601v13.57h21.06v3.37H601v14.28H625.3v3.37H596.93Z"/><path d="M725.36,283.77h4v37.95h-4.3l-25.55-32.14v32.14h-4.07V283.77h4.31l25.6,32.14Z"/></svg>
