<svg id="Lag_1" data-name="Lag 1" xmlns="http://www.w3.org/2000/svg" viewBox="0 0 59.54 52.69"><defs><style>*{fill:#BC9139}</style></defs><path d="M50.17,23.1C46.7,6.66,30,5.31,29.84,5.3l-.14,2c.15,0,15.36,1.24,18.52,16.24Z"/><rect x="19.95" y="37.64" width="1.99" height="8.28"/><rect x="23.93" y="35.24" width="1.99" height="13.09"/><rect x="36.85" y="37.64" width="1.99" height="8.28"/><rect x="32.88" y="35.24" width="1.99" height="13.09"/><path d="M41.65,29.45V52l.69.22a12,12,0,0,0,2,.44V28.8a12.13,12.13,0,0,0-2,.44Z"/><path d="M14.53,52.69a12.07,12.07,0,0,0,2.67-.51l.69-.22V29.45l-.69-.22a12,12,0,0,0-2.67-.51Z"/><path d="M0,44.71H2.29a12.07,12.07,0,0,0,9.63,7.89V28.82a12,12,0,0,0-4.21,1.44V27.72A3.35,3.35,0,0,0,5.55,24.6,24.28,24.28,0,0,1,54,24.53a3.34,3.34,0,0,0-2.37,3.19v2.42A12,12,0,0,0,47,28.75V52.68a12.08,12.08,0,0,0,10.29-8h2.29v-8H58.31v-9A3.34,3.34,0,0,0,56,24.54a26.26,26.26,0,0,0-52.4-.07A3.35,3.35,0,0,0,1,27.72v9H0v8Z"/></svg>
