<svg id="Lag_1" data-name="Lag 1" xmlns="http://www.w3.org/2000/svg" viewBox="0 0 60 60"><defs><style>path{fill:white;}</style></defs><title>Tegnebræt 1 kopi 2</title><path class="cls-1" d="M60,60H0V0H60ZM1.94,58.06H58.06V1.94H1.94Z"/><path class="cls-1" d="M45.19,17.39a3.3,3.3,0,0,0-2.78-2.62l-.17,0H17.76l-.44.08a3.29,3.29,0,0,0-2.54,2.77l0,.17V42.24c0,.15.05.31.09.47a3.3,3.3,0,0,0,2.77,2.52l.2,0H42.2l.47-.08a3.3,3.3,0,0,0,2.51-2.56c0-.14,0-.27.07-.41V17.79C45.23,17.66,45.21,17.53,45.19,17.39Zm-7.36-.17h2.88A1.23,1.23,0,0,1,42,18.46v2.89a1.22,1.22,0,0,1-1.17,1.22c-.5,0-1,0-1.51,0H37.88a1.23,1.23,0,0,1-1.21-.82,1.4,1.4,0,0,1-.07-.43c0-1,0-1.91,0-2.86A1.23,1.23,0,0,1,37.83,17.22ZM30,23.82a6.18,6.18,0,1,1-6.18,6.09A6.19,6.19,0,0,1,30,23.82Zm12,3.39Q42,34,42,40.74A1.23,1.23,0,0,1,40.74,42H19.26A1.23,1.23,0,0,1,18,40.74Q18,34,18,27.2v-.08H21a9.47,9.47,0,0,0,.74,7.45,9.27,9.27,0,0,0,3.68,3.71A9.48,9.48,0,0,0,38.1,34.93a9.32,9.32,0,0,0,1.32-3.8,9.54,9.54,0,0,0-.38-4H42Z"/></svg>
