<svg id="Lag_1" data-name="Lag 1" xmlns="http://www.w3.org/2000/svg" viewBox="0 0 59.16 38.31"><defs><style>*{fill:white}</style></defs><path d="M28.53,2.78v33L14.27,27.49l-.73-.43H0V11.45H13.52l.73-.43ZM40.78,19.33A30.87,30.87,0,0,0,37.72,5.9H36.61a31.82,31.82,0,0,1,0,26.73h1.12A30.87,30.87,0,0,0,40.78,19.33Zm9.75-.07A42.38,42.38,0,0,0,47,2.27H45.75a44.09,44.09,0,0,1,0,33.78H47A42.38,42.38,0,0,0,50.53,19.26Zm8.63,0A48.08,48.08,0,0,0,55.21,0H53.75a50,50,0,0,1,0,38.31h1.46a48.07,48.07,0,0,0,3.94-19Z"/></svg>
