<svg id="Lag_1" data-name="Lag 1" xmlns="http://www.w3.org/2000/svg" viewBox="0 0 60 60"><defs><style>path, polygon{fill:white;}</style></defs><path class="cls-1" d="M60,60H0V0H60ZM1.94,58.06H58.06V1.94H1.94Z"/><path class="cls-1" d="M39.52,24.75h-2V23.67a4.11,4.11,0,0,1-1.13.91,2.42,2.42,0,0,1-1.14.31,1.23,1.23,0,0,1-1-.44,2.09,2.09,0,0,1-.35-1.31V15h2v7.5A.81.81,0,0,0,36,23a.48.48,0,0,0,.4.16,1.13,1.13,0,0,0,.55-.21,2.58,2.58,0,0,0,.6-.53V15h2v9.78Z"/><path class="cls-1" d="M31.54,15.44a2.86,2.86,0,0,0-2-.71,3.19,3.19,0,0,0-2.13.67,2.24,2.24,0,0,0-.79,1.81v5.07a2.62,2.62,0,0,0,.77,2,2.88,2.88,0,0,0,2.06.74,3,3,0,0,0,2.11-.71,2.57,2.57,0,0,0,.76-2V17.27A2.37,2.37,0,0,0,31.54,15.44Zm-1.23,7a.82.82,0,0,1-.23.62.89.89,0,0,1-.63.22.79.79,0,0,1-.6-.22.88.88,0,0,1-.21-.62V17.14a.66.66,0,0,1,.23-.52.86.86,0,0,1,.59-.2,1,1,0,0,1,.63.2.64.64,0,0,1,.24.52Z"/><polygon class="cls-1" points="21.26 11.5 19.03 11.5 21.67 19.5 21.67 24.75 23.88 24.75 23.88 19.25 26.45 11.5 24.2 11.5 22.84 16.8 22.7 16.8 21.26 11.5"/><path class="cls-1" d="M39.53,36.84a.69.69,0,0,0-.6.24,1.33,1.33,0,0,0-.18.8v.9h1.54v-.9a1.32,1.32,0,0,0-.18-.8A.66.66,0,0,0,39.53,36.84Z"/><path class="cls-1" d="M43.51,29.93C42.07,28.5,30,28.48,30,28.48s-12.08,0-13.52,1.45S15,38.44,15,38.48,15,45.6,16.48,47,30,48.5,30,48.5s12.08,0,13.51-1.46S45,38.48,45,38.48,44.95,31.36,43.51,29.93ZM24,34.1h-2V44.38h-2V34.1h-2V32.35h6ZM29.7,44.38H28v-1a3.73,3.73,0,0,1-1,.82,2.1,2.1,0,0,1-1,.28,1.08,1.08,0,0,1-.91-.4,2,2,0,0,1-.3-1.19V35.51h1.74v6.81a.78.78,0,0,0,.11.46.43.43,0,0,0,.36.14,1,1,0,0,0,.49-.19,2.48,2.48,0,0,0,.54-.48V35.51H29.7ZM36,42.55A2.23,2.23,0,0,1,35.62,44a1.44,1.44,0,0,1-1.19.5,2,2,0,0,1-.91-.19,2.24,2.24,0,0,1-.75-.6v.68H31v-12h1.76v3.88a2.68,2.68,0,0,1,.75-.62,1.69,1.69,0,0,1,.8-.21A1.5,1.5,0,0,1,35.6,36,2.67,2.67,0,0,1,36,37.62Zm6.05-2.39H38.75v1.67a2,2,0,0,0,.17,1,.65.65,0,0,0,.59.27.71.71,0,0,0,.61-.23,1.92,1.92,0,0,0,.17-1v-.4h1.79v.46a2.88,2.88,0,0,1-.66,2.06,2.58,2.58,0,0,1-2,.69,2.38,2.38,0,0,1-1.85-.73,2.86,2.86,0,0,1-.68-2v-4A2.53,2.53,0,0,1,37.69,36a2.61,2.61,0,0,1,1.91-.73,2.43,2.43,0,0,1,1.84.67,2.69,2.69,0,0,1,.64,1.93Z"/><path class="cls-1" d="M33.51,36.81a.83.83,0,0,0-.37.08,1.3,1.3,0,0,0-.36.27V42.7a1.5,1.5,0,0,0,.41.31,1,1,0,0,0,.42.1.56.56,0,0,0,.47-.19,1,1,0,0,0,.15-.61V37.72a1.08,1.08,0,0,0-.18-.68A.67.67,0,0,0,33.51,36.81Z"/></svg>
